<svg width="30" height="30" viewBox="0 0 30 30" fill="none" xmlns="http://www.w3.org/2000/svg">
<path d="M20 15C20.0006 15.2921 19.8988 15.5751 19.7125 15.8L13.4625 23.3C13.2503 23.5553 12.9454 23.7158 12.6149 23.7463C12.2844 23.7767 11.9553 23.6747 11.7 23.4625C11.4447 23.2503 11.2842 22.9454 11.2537 22.6149C11.2232 22.2844 11.3253 21.9553 11.5375 21.7L17.1375 15L11.7375 8.29999C11.6337 8.17213 11.5561 8.02501 11.5093 7.86709C11.4625 7.70916 11.4474 7.54355 11.4648 7.37976C11.4823 7.21598 11.5319 7.05725 11.6109 6.9127C11.6898 6.76816 11.7966 6.64064 11.925 6.53749C12.0535 6.42302 12.2043 6.33632 12.3679 6.28283C12.5315 6.22934 12.7044 6.21021 12.8757 6.22663C13.047 6.24306 13.2131 6.2947 13.3636 6.3783C13.514 6.4619 13.6456 6.57568 13.75 6.71249L19.7875 14.2125C19.9444 14.4438 20.0192 14.7211 20 15Z" fill="#8D99A2"/>
</svg>
