<svg width="30" height="30" viewBox="0 0 30 30" fill="none" xmlns="http://www.w3.org/2000/svg">
<path d="M10 15C9.99945 15.2921 10.1012 15.5751 10.2875 15.8L16.5375 23.3C16.7497 23.5553 17.0546 23.7158 17.3851 23.7463C17.7156 23.7767 18.0448 23.6747 18.3 23.4625C18.5553 23.2503 18.7158 22.9454 18.7463 22.6149C18.7768 22.2844 18.6747 21.9553 18.4625 21.7L12.8625 15L18.2625 8.29999C18.3664 8.17213 18.4439 8.02501 18.4907 7.86709C18.5375 7.70916 18.5526 7.54355 18.5352 7.37976C18.5177 7.21598 18.4681 7.05725 18.3892 6.9127C18.3102 6.76816 18.2034 6.64064 18.075 6.53749C17.9465 6.42302 17.7957 6.33632 17.6321 6.28283C17.4685 6.22934 17.2957 6.21021 17.1243 6.22663C16.953 6.24306 16.7869 6.2947 16.6365 6.3783C16.486 6.4619 16.3545 6.57568 16.25 6.71249L10.2125 14.2125C10.0556 14.4438 9.98081 14.7211 10 15Z" fill="#8D99A2"/>
</svg>
