<svg width="24" height="24" viewBox="0 0 24 24" fill="none" xmlns="http://www.w3.org/2000/svg">
<g clip-path="url(#clip0)">
<path d="M11.4286 24C17.7404 24 22.8571 18.8832 22.8571 12.5714C22.8571 6.2596 17.7404 1.14285 11.4286 1.14285C5.11675 1.14285 0 6.2596 0 12.5714C0 18.8832 5.11675 24 11.4286 24Z" fill="#71BE5B"/>
<path d="M22.8276 11.7531H11.7764L16.3004 2.23112C15.3913 1.80207 14.4168 1.48925 13.3955 1.3121L8.43482 11.7531H0.029442C0.0102717 12.0234 1.55058e-08 12.2962 1.55058e-08 12.5714C1.55058e-08 13.4386 0.0970599 14.2829 0.280084 15.0948H22.5771C22.7601 14.2829 22.8571 13.4386 22.8571 12.5714C22.8572 12.2962 22.8468 12.0234 22.8276 11.7531Z" fill="white"/>
<path d="M7.55556 12.5861L8.68206 15.6595L7.02215 16.2679C7.05248 16.371 7.0853 16.4736 7.12061 16.5758L8.79324 15.9627L9.91974 19.0361L8.88294 19.4161C8.96499 19.5013 9.0492 19.5852 9.13554 19.6674L10.0309 19.3393L10.5509 20.7581C10.6931 20.8461 10.8386 20.9306 10.9877 21.0114L10.3341 19.2282L13.4075 18.1016L14.534 21.175L12.892 21.7769C13.0818 21.8286 13.2719 21.8737 13.4619 21.9119L14.6451 21.4783L14.8637 22.0747C14.9791 22.0783 15.0943 22.0796 15.209 22.0783L14.9483 21.3671L18.0217 20.2406L18.425 21.3409C18.5228 21.2934 18.6192 21.2435 18.7142 21.1916L18.3249 20.1295L20.9354 19.1727C21.0297 19.0303 21.1184 18.8832 21.201 18.7314L18.2137 19.8263L17.0873 16.7529L20.1607 15.6264L21.2587 18.6223C21.2992 18.5443 21.3385 18.4656 21.3757 18.3852C21.4023 18.3278 21.4277 18.2701 21.4524 18.2123L20.4638 15.5153L21.8746 14.9982C21.8601 14.8896 21.8429 14.7813 21.8229 14.6732L20.3527 15.2121L19.2262 12.1387L20.5032 11.6706C20.4369 11.58 20.3685 11.4903 20.2978 11.402L19.1151 11.8355L18.2934 9.59362C18.1495 9.50017 18.0019 9.41024 17.8507 9.32423L18.8119 11.9466L15.7385 13.0731L14.612 9.99972L17.2747 9.02384C17.2453 9.00981 17.2162 8.9955 17.1865 8.98176C17.0753 8.93015 16.9636 8.88144 16.8515 8.835L14.5009 9.69652L13.9441 8.1774C13.828 8.17199 13.7122 8.16903 13.5969 8.16852L14.1977 9.80765L11.1243 10.9341L10.3622 8.85491C10.2638 8.90068 10.1666 8.94853 10.0709 8.99857L10.8211 11.0453L7.74763 12.1718L7.49543 11.4837C7.42745 11.6068 7.36296 11.7325 7.30306 11.8617C7.30055 11.8671 7.29838 11.8724 7.29592 11.8777L7.44443 12.2829L7.07932 12.4167C7.03468 12.5452 6.99446 12.6746 6.95898 12.8048L7.55556 12.5861ZM15.8496 13.3763L18.923 12.2498L20.0495 15.3232L16.9761 16.4497L15.8496 13.3763ZM11.2354 11.2374L14.3088 10.1109L15.4352 13.1843L12.3618 14.3108L11.2354 11.2374ZM12.473 14.614L15.5464 13.4875L16.6729 16.5609L13.5995 17.6874L12.473 14.614ZM13.7106 17.9906L16.784 16.8641L17.9105 19.9375L14.8371 21.0639L13.7106 17.9906ZM7.85876 12.475L10.9322 11.3485L12.0587 14.4219L8.98525 15.5484L7.85876 12.475ZM9.09638 15.8516L12.1698 14.7251L13.2963 17.7985L10.2229 18.925L9.09638 15.8516Z" fill="#F1F3E0"/>
<path d="M2.19354 9.54618C2.00863 9.94507 1.61292 10.1782 1.2002 10.1768C2.44721 11.7766 4.15218 14.0788 4.61844 15.2728C5.71226 18.0737 7.09078 21.1055 10.1624 22.7355C10.2916 22.8041 10.4231 22.8707 10.5584 22.9342C10.571 22.9402 10.5832 22.9466 10.5959 22.9525C10.8483 23.0695 11.1027 23.1758 11.3581 23.2726C11.4898 23.3224 11.6217 23.37 11.7541 23.4145C16.3991 24.9787 21.3447 23.2712 23.1942 19.2814C24.4426 16.5883 23.9857 13.4908 22.2667 10.9824C22.2038 10.8907 22.139 10.7998 22.0727 10.7096C21.3724 9.75656 20.4857 8.89726 19.438 8.18901C19.327 8.11395 19.2141 8.04074 19.0995 7.96914C18.7049 7.72259 18.2896 7.4965 17.8542 7.29464C17.6502 7.20007 17.4462 7.11508 17.2424 7.03831C17.1108 6.98884 16.9794 6.94333 16.8481 6.90091C13.8098 5.9182 10.8105 6.77717 8.1308 7.69606C6.91827 8.11181 4.05956 8.29846 2.03292 8.38068C2.3007 8.69463 2.3785 9.14727 2.19354 9.54618ZM7.18162 11.8777C7.18447 11.8726 7.18625 11.867 7.18877 11.8617C7.24867 11.7325 7.31317 11.6068 7.38114 11.4837C7.9777 10.404 8.87817 9.56325 9.95661 8.99856C10.0523 8.94853 10.1494 8.9007 10.2479 8.85491C11.2257 8.40049 12.3328 8.16328 13.4826 8.16851C13.5979 8.16902 13.7137 8.17198 13.8298 8.17739C14.7922 8.22236 15.7779 8.43653 16.7372 8.83493C16.8492 8.8814 16.9609 8.93011 17.0722 8.9817C17.1019 8.99544 17.131 9.00969 17.1603 9.02378C17.3577 9.11781 17.5498 9.21802 17.7364 9.32416C17.8876 9.41018 18.0352 9.50013 18.1791 9.59355C18.9627 10.1024 19.6365 10.7174 20.1835 11.4019C20.2541 11.4903 20.3225 11.5799 20.3889 11.6705C21.0617 12.5889 21.5139 13.6175 21.7087 14.6731C21.7286 14.7812 21.7458 14.8896 21.7603 14.9981C21.9049 16.0799 21.7775 17.1808 21.3381 18.2122C21.3135 18.2701 21.2881 18.3277 21.2615 18.3851C21.2242 18.4655 21.1849 18.5442 21.1445 18.6222L21.1729 18.6997L21.0867 18.7313C21.0041 18.883 20.9155 19.0302 20.8211 19.1726C20.2575 20.0235 19.4924 20.7038 18.5999 21.1915C18.5049 21.2435 18.4085 21.2934 18.3107 21.3409C17.3424 21.8115 16.2415 22.0656 15.0947 22.0783C14.9801 22.0795 14.8649 22.0782 14.7494 22.0746C14.2862 22.0602 13.8171 22.0064 13.3476 21.9119C13.1576 21.8736 12.9676 21.8286 12.7778 21.7768C12.3074 21.6484 11.8389 21.4788 11.3781 21.2652C11.2058 21.1853 11.0377 21.1005 10.8734 21.0114C10.7244 20.9306 10.5789 20.846 10.4367 20.7581C9.91739 20.4371 9.444 20.0702 9.02128 19.6674C8.93494 19.5851 8.85079 19.5012 8.76868 19.416C7.96109 18.5779 7.36139 17.6035 7.00635 16.5757C6.9711 16.4735 6.9383 16.3709 6.90789 16.2678C6.57259 15.1312 6.53527 13.9406 6.84472 12.8047C6.88019 12.6745 6.9205 12.5452 6.96506 12.4167C7.04858 12.176 7.12732 11.9763 7.18162 11.8777ZM4.28042 12.4923L2.21444 9.55587L5.79042 9.23488L4.28042 12.4923Z" fill="#EA7053"/>
<path fill-rule="evenodd" clip-rule="evenodd" d="M1.7774 8.09896C1.92458 8.16723 2.04841 8.26471 2.14719 8.38056C2.41501 8.69462 2.49282 9.14727 2.30797 9.54613C2.21313 9.75071 2.06287 9.91168 1.88333 10.0198C1.71273 10.1225 1.51569 10.1775 1.31463 10.1768C1.16238 10.1763 1.00791 10.1448 0.86075 10.0766L0.330727 9.83088C0.507369 9.11317 0.751815 8.42213 1.05688 7.76495L1.7774 8.09896Z" fill="#29546C"/>
<path d="M15.2683 8.8266C17.3025 10.8084 20.5591 10.7661 22.5405 8.7319C24.5229 6.69745 24.4806 3.44101 22.4459 1.45916C20.4113 -0.522889 17.155 -0.480378 15.1734 1.55417C13.1915 3.58861 13.234 6.84434 15.2683 8.8266Z" fill="#FFC107"/>
<path d="M19.4031 4.58217C20.6426 5.78966 22.3081 6.29609 23.9061 6.11133C23.9568 5.84484 23.9834 5.57536 23.9914 5.30506C22.5666 5.5241 21.06 5.10146 19.9504 4.02058C18.8406 2.93939 18.3786 1.44389 18.5604 0.0140686C18.2907 0.0294054 18.0221 0.0625494 17.7569 0.120706C17.6138 1.72253 18.1637 3.37437 19.4031 4.58217Z" fill="white"/>
<path d="M17.7643 6.26505C18.8739 7.34603 19.3357 8.84132 19.1538 10.2717C19.4238 10.256 19.6926 10.2228 19.9576 10.165C20.1005 8.56269 19.5513 6.91074 18.3116 5.70314C17.0721 4.49534 15.4066 3.98892 13.8082 4.17409C13.7573 4.44058 13.7311 4.70996 13.7227 4.98025C15.1473 4.76122 16.6545 5.18365 17.7643 6.26505Z" fill="white"/>
<path opacity="0.36" d="M19.1538 10.2716C19.1548 10.2716 19.1556 10.2712 19.1565 10.2712C19.2862 10.2639 19.4159 10.2527 19.5451 10.2353C19.5674 10.2324 19.5893 10.2278 19.612 10.2249C19.7274 10.2077 19.8424 10.1901 19.9566 10.1654C19.9566 10.1654 19.9572 10.165 19.9576 10.165C20.9083 9.9576 21.8111 9.48082 22.5406 8.73199C22.7245 8.54332 22.8882 8.34271 23.0366 8.13489C22.4349 8.58717 21.7553 8.89072 21.0491 9.0448C21.0491 9.0448 21.0485 9.0448 21.0481 9.04501C20.9342 9.06971 20.8188 9.08731 20.7037 9.1043C20.681 9.10739 20.6591 9.11202 20.6365 9.1149C20.5076 9.1323 20.3783 9.1431 20.248 9.15082C20.2473 9.15082 20.2462 9.15103 20.2455 9.15103C18.8549 9.2309 17.4363 8.75495 16.3598 7.70618C15.1824 6.5589 14.6767 4.98528 14.8404 3.46859C14.8425 3.44543 14.8463 3.42278 14.8493 3.39983C14.9504 2.56588 15.2549 1.75189 15.7639 1.03745C15.5577 1.19267 15.3592 1.36343 15.1736 1.55426C14.356 2.39326 13.8887 3.44059 13.7577 4.52034C13.7549 4.5433 13.7512 4.56604 13.7489 4.58869C13.5853 6.1058 14.0909 7.67921 15.2686 8.82669C16.3448 9.87536 17.763 10.3513 19.1538 10.2716Z" fill="#B0A737"/>
</g>
<defs>
<clipPath id="clip0">
<rect width="24" height="24" fill="white"/>
</clipPath>
</defs>
</svg>
