<svg width="24" height="24" viewBox="0 0 24 24" fill="none" xmlns="http://www.w3.org/2000/svg">
<g clip-path="url(#clip0)">
<path d="M11.4285 24C5.11674 24 3.8147e-06 18.8833 3.8147e-06 12.5715C3.8147e-06 6.2597 5.11674 1.14297 11.4285 1.14297C17.7404 1.14297 22.8571 6.2597 22.8571 12.5715C22.8571 18.8833 17.7404 24 11.4285 24Z" fill="#9FBE5B"/>
<path d="M0.353943 15.4036C0.551462 16.1784 0.82871 16.9212 1.17541 17.6236H21.6819C22.0286 16.9212 22.3058 16.1784 22.5034 15.4036H0.353943Z" fill="white"/>
<path fill-rule="evenodd" clip-rule="evenodd" d="M7.72064 11.3336V1.7579C6.38008 2.21747 5.152 2.9193 4.08869 3.81114V5.00396L3.46197 4.37729C3.36111 4.47537 3.26205 4.57529 3.16486 4.67701L4.08869 5.60089V6.05728L3.08633 7.05964L2.05635 6.02966C1.97424 6.14707 1.89428 6.2661 1.81653 6.38669L2.78786 7.3581L1.55736 8.58866L0.956401 7.9877C0.895364 8.12695 0.837022 8.26764 0.781443 8.40973L1.25878 8.88707L0.335923 9.80993C0.313545 9.90011 0.292239 9.99071 0.272017 10.0817C0.281753 10.1005 0.294509 10.1182 0.310288 10.134C0.351574 10.1752 0.405549 10.1958 0.459522 10.1958C0.51355 10.1958 0.567577 10.1752 0.608754 10.134L1.5573 9.18553L2.73372 10.3619L1.9437 11.1519C1.86124 11.2342 1.86124 11.3678 1.9437 11.4502C1.98494 11.4914 2.03896 11.5121 2.09294 11.5121C2.14696 11.5121 2.20094 11.4914 2.24217 11.4502L3.03219 10.6603L4.1443 11.7725C4.34095 12.563 5.05337 13.1496 5.90464 13.1496C6.90754 13.1496 7.72064 12.3365 7.72064 11.3336ZM4.08869 9.60387V11.12L3.3306 10.3619L4.08869 9.60387ZM3.03225 10.0635L4.08874 9.00693V8.65887L3.08638 7.65651L1.85582 8.88707L3.03225 10.0635ZM3.38468 7.3581L4.08869 6.65415V8.06194L3.38468 7.3581Z" fill="white"/>
<path fill-rule="evenodd" clip-rule="evenodd" d="M1.25878 8.88707L0.781443 8.40973C0.837022 8.26764 0.895364 8.12695 0.956401 7.9877L1.55736 8.58866L2.78786 7.3581L1.81653 6.38669C1.89428 6.2661 1.97424 6.14707 2.05635 6.02966L3.08633 7.05964L4.08869 6.05728V5.60089L3.16486 4.67701C3.26205 4.57529 3.36111 4.47537 3.46197 4.37729L4.08869 5.00396V3.81114C5.152 2.9193 6.38008 2.21747 7.72064 1.7579V11.3336C7.72064 12.3365 6.90754 13.1496 5.90464 13.1496C5.05337 13.1496 4.34095 12.563 4.1443 11.7725L3.03219 10.6603L2.24217 11.4502C2.20094 11.4914 2.14696 11.5121 2.09294 11.5121C2.03896 11.5121 1.98494 11.4914 1.9437 11.4502C1.86124 11.3678 1.86124 11.2342 1.9437 11.1519L2.73372 10.3619L1.5573 9.18553L0.608754 10.134C0.567577 10.1752 0.51355 10.1958 0.459522 10.1958C0.405549 10.1958 0.351574 10.1752 0.310288 10.134C0.294509 10.1182 0.281753 10.1005 0.272017 10.0817C0.2309 10.0023 0.243657 9.90215 0.310288 9.83556L0.335923 9.80993L1.25878 8.88707ZM4.08869 6.65415L3.38468 7.3581L4.08869 8.06194V6.65415ZM4.08869 11.12V9.60387L3.3306 10.3619L4.08869 11.12ZM3.03225 10.0635L4.08874 9.00693V8.65887L3.08638 7.65651L1.85582 8.88707L3.03225 10.0635Z" fill="white"/>
<path opacity="0.29" d="M15.4036 15.1936C13.9657 15.1936 12.8 14.9392 12.8 14.6254C12.8 14.3115 13.9657 14.0572 15.4036 14.0572C16.8416 14.0572 18.0073 14.3115 18.0073 14.6254C18.0073 14.9392 16.8416 15.1936 15.4036 15.1936Z" fill="#697D3C"/>
<ellipse cx="17.1428" cy="6.85714" rx="6.85713" ry="6.85714" fill="#EAEBED"/>
<path d="M19.6696 12.7997C19.6696 12.6483 19.7472 12.5901 19.7472 12.5901L21.6229 10.9328C21.7373 10.7947 21.8654 10.8446 21.8654 10.8446L21.8761 10.8471L22.5771 11.0057L22.5957 11.0099C22.5957 11.0099 22.0725 11.6551 21.3143 12.2571C20.8066 12.6602 20.1305 13.035 19.6696 13.2168V13.1793V12.7997Z" fill="#2B1F15"/>
<path d="M20.1366 4.99641C20.1719 4.87107 20.2574 4.77622 20.3575 4.70722C20.6797 4.45659 21.5958 4.08818 21.9914 4.03648C22.1339 4.01633 22.2563 4.1627 22.2563 4.1627C22.6813 4.56497 23.3482 5.82763 23.4868 6.24053C23.4868 6.24053 23.5169 6.36849 23.4971 6.46392C23.3881 6.93793 22.6861 8.01013 22.411 8.29729C22.411 8.29729 22.3281 8.40456 22.175 8.35456C21.7727 8.2539 20.9365 7.84634 20.6229 7.56568C20.3911 7.38481 20.3577 7.2726 20.3577 7.2726C20.2617 6.91696 20.0203 5.98056 20.1366 4.99641Z" fill="#2B1F15"/>
<path d="M10.6184 4.78838C10.4027 5.45412 10.2857 6.16429 10.2857 6.90193C10.2857 7.81632 10.4558 8.66142 10.7814 9.45419C10.7833 9.45262 10.7852 9.45134 10.7871 9.45001C10.7884 9.44902 10.7902 9.4478 10.7918 9.4467C10.7949 9.44472 10.7983 9.44275 10.8025 9.44025C10.8055 9.43781 10.8089 9.43485 10.812 9.43229C11.0327 9.24625 11.5293 8.82045 11.7329 8.58952C11.8171 8.48584 11.8362 8.39268 11.8409 8.35364L11.8407 8.35359C11.8978 7.83259 11.7638 6.14407 11.6636 5.71485C11.6329 5.6146 11.57 5.52985 11.5151 5.46916L11.5149 5.46933C11.285 5.22417 10.8284 4.88125 10.6391 4.74243" fill="#2B1F15"/>
<path d="M13.8635 9.147C14.1302 8.77632 15.0374 7.92524 15.5105 7.6041C15.6969 7.47185 15.9226 7.52255 15.9226 7.52255C16.4767 7.67165 17.8195 8.46389 18.1084 8.78776C18.1084 8.78776 18.1975 8.86919 18.1988 9.08282C18.198 9.65342 17.864 10.928 17.7131 11.3058C17.7131 11.3058 17.6723 11.4281 17.5615 11.4689C17.1186 11.6763 15.6413 11.8022 15.1817 11.8105C15.0617 11.8204 14.9711 11.7461 14.9711 11.7461C14.6044 11.4095 13.8511 9.82999 13.7907 9.36946C13.7898 9.28489 13.8309 9.19782 13.8635 9.147Z" fill="#2B1F15"/>
<path d="M21.3928 1.99757L19.271 0.77122C19.1624 0.708433 19.1409 0.60615 19.1374 0.532792L19.1375 0.532734V0.303192C20.1849 0.621309 21.1259 1.18384 21.8943 1.92474L21.6239 2.00971C21.492 2.05077 21.3928 1.99757 21.3928 1.99757Z" fill="#2B1F15"/>
<path d="M17.4425 1.47838C17.6348 1.94635 18.0519 3.02366 17.9621 3.3448C17.9621 3.3448 17.9059 3.47902 17.7966 3.5719C17.4049 4.04742 16.2493 4.74365 15.7215 4.88938C15.6515 4.90698 15.5508 4.92162 15.4409 4.90117C15.0023 4.80725 14.0976 4.3448 13.7096 4.00362C13.5401 3.83919 13.5262 3.74318 13.5356 3.66773C13.6002 3.29717 13.9716 2.19697 14.2292 1.76164C14.3134 1.63079 14.4227 1.57079 14.5082 1.54116C15.0192 1.39892 16.6308 1.14272 17.1942 1.21619C17.3357 1.23042 17.3968 1.36994 17.4425 1.47838Z" fill="#2B1F15"/>
<path opacity="0.16" d="M22.5957 11.0099C22.5957 11.0099 20.8189 12.7635 19.6696 13.2167C18.8886 13.5269 18.0383 13.7143 17.148 13.7143C16.2315 13.7143 15.357 13.5319 14.5573 13.2036L14.3923 13.1324C14.3804 13.1273 14.3682 13.1226 14.3562 13.1173L14.3564 13.1169C12.7568 12.3997 11.4607 11.1038 10.7913 9.47835C10.7884 9.47132 10.7843 9.46133 10.7814 9.45424C10.4558 8.66148 10.2857 7.81638 10.2857 6.90199C10.2857 6.16434 10.4028 5.45417 10.6184 4.78843L10.6391 4.74243C11.1607 3.14075 12.2496 1.793 13.6752 0.950287C10.959 4.05578 11.0536 7.94776 13.1062 10.4107C14.9861 12.6664 18.9679 13.0245 22.5957 11.0099Z" fill="#68696A"/>
</g>
<defs>
<clipPath id="clip0">
<rect width="24" height="24" fill="white"/>
</clipPath>
</defs>
</svg>
