<svg width="20" height="20" viewBox="0 0 20 20" fill="none" xmlns="http://www.w3.org/2000/svg">
<path d="M11.6667 6.66667H3.33333C2.41417 6.66667 1.66667 7.41417 1.66667 8.33334V16.6667C1.66667 17.5858 2.41417 18.3333 3.33333 18.3333H11.6667C12.5858 18.3333 13.3333 17.5858 13.3333 16.6667V8.33334C13.3333 7.41417 12.5858 6.66667 11.6667 6.66667Z" fill="#EFF2F3"/>
<path d="M16.6667 1.66667H8.33333C7.8913 1.66667 7.46738 1.84227 7.15482 2.15483C6.84226 2.46739 6.66666 2.89131 6.66666 3.33334V5.00001H13.3333C13.7754 5.00001 14.1993 5.1756 14.5118 5.48816C14.8244 5.80072 15 6.22464 15 6.66667V13.3333H16.6667C17.1087 13.3333 17.5326 13.1577 17.8452 12.8452C18.1577 12.5326 18.3333 12.1087 18.3333 11.6667V3.33334C18.3333 2.89131 18.1577 2.46739 17.8452 2.15483C17.5326 1.84227 17.1087 1.66667 16.6667 1.66667Z" fill="#EFF2F3"/>
</svg>
