<svg width="24" height="24" viewBox="0 0 24 24" fill="none" xmlns="http://www.w3.org/2000/svg">
<g clip-path="url(#clip0)">
<path d="M22.9293 12.5714C22.9293 6.25955 17.8125 1.14285 11.5008 1.14285C5.18873 1.14285 0.072136 6.25955 0.072136 12.5714C0.072136 18.8833 5.18867 24 11.5008 24C17.8125 24 22.9293 18.8833 22.9293 12.5714Z" fill="#D1F3FF"/>
<path fill-rule="evenodd" clip-rule="evenodd" d="M0.0958252 13.3143H22.9055C22.8337 14.4323 22.6012 15.5066 22.2308 16.5143H0.770416C0.400038 15.5066 0.167556 14.4323 0.0958252 13.3143Z" fill="white"/>
<path fill-rule="evenodd" clip-rule="evenodd" d="M0.770416 16.5143H22.2308C22.6012 15.5066 22.8337 14.4323 22.9055 13.3143H0.0958252C0.167556 14.4323 0.400038 15.5066 0.770416 16.5143Z" fill="white"/>
<path opacity="0.56" fill-rule="evenodd" clip-rule="evenodd" d="M18.9046 21.2777C18.4818 21.2517 18.0399 21.2379 17.5851 21.2379C14.5404 21.2379 12.0721 21.8562 12.0721 22.619C12.0721 23.0542 12.876 23.4425 14.1321 23.6956C14.1153 23.6996 14.0985 23.7035 14.0817 23.7073C15.8916 23.2896 17.5369 22.4419 18.9046 21.2777Z" fill="#B8B9BB"/>
<path d="M12.0677 20.5546C12.0677 21.6947 14.7421 22.619 18.0412 22.619C21.3404 22.619 24.0149 21.6947 24.0149 20.5546C24.0149 19.4148 21.3403 18.4905 18.0412 18.4905C14.742 18.4905 12.0677 19.4148 12.0677 20.5546Z" fill="#1E394F"/>
<path d="M24.015 18.7013H12.0677V20.5546H24.015V18.7013Z" fill="#1E394F"/>
<path d="M18.0413 20.8712C21.3404 20.8712 24.0149 19.9471 24.0149 18.807C24.0149 17.667 21.3404 16.7428 18.0413 16.7428C14.7422 16.7428 12.0677 17.667 12.0677 18.807C12.0677 19.9471 14.7422 20.8712 18.0413 20.8712Z" fill="#385873"/>
<path opacity="0.4" fill-rule="evenodd" clip-rule="evenodd" d="M5.84551 22.5051C6.77215 21.8536 8.02039 20.772 9.31206 19.4658C11.6727 17.0787 13.2845 14.8455 12.912 14.4778C12.5396 14.1101 10.324 15.7472 7.96332 18.1343C6.57106 19.5421 5.43929 20.8965 4.82144 21.8462C5.15012 22.0833 5.4919 22.3033 5.84551 22.5051Z" fill="#1E394F"/>
<path fill-rule="evenodd" clip-rule="evenodd" d="M12.6488 1.1998C12.2712 1.16214 11.8882 1.14285 11.5008 1.14285C11.1301 1.14285 10.7636 1.1605 10.402 1.19499C10.1696 7.76786 9.75596 10.3627 8.88659 11.5626C7.18726 13.9074 5.28813 15.6316 4.00724 16.7244C3.44236 17.2064 2.90728 17.6401 2.43533 18.0224C2.19799 18.2147 1.97482 18.3955 1.76837 18.5658C1.6376 18.6736 1.51353 18.7772 1.39682 18.8768C0.668114 19.4985 0.203482 19.9764 0.140076 20.4365C0.0238288 21.2764 0.0626371 23.0355 1.04297 23.6808C1.61647 24.0581 2.36308 23.9746 3.26176 23.4319C3.75186 23.1362 4.38973 22.6614 5.11655 22.0521C5.18293 21.9964 5.25006 21.9397 5.31788 21.8818C8.09994 19.5081 12.3488 15.0405 12.6325 12.9908C12.717 12.3792 12.7044 8.31064 12.6488 1.1998Z" fill="#1E394F"/>
<path fill-rule="evenodd" clip-rule="evenodd" d="M8.88659 11.5626C9.75596 10.3627 10.1696 7.76786 10.402 1.19499C10.7636 1.1605 11.1301 1.14285 11.5008 1.14285C11.8882 1.14285 12.2712 1.16214 12.6488 1.1998C12.7044 8.31064 12.717 12.3792 12.6325 12.9908C12.3488 15.0405 8.09994 19.5081 5.31788 21.8818C5.25006 21.9397 5.18293 21.9964 5.11655 22.0521C3.76807 21.1423 2.62421 19.9524 1.76837 18.5658C1.97482 18.3955 2.19799 18.2147 2.43533 18.0224C2.90728 17.6401 3.44236 17.2064 4.00724 16.7244C5.28813 15.6316 7.18726 13.9074 8.88659 11.5626Z" fill="#1E394F"/>
<path d="M1.87106 18.4688C1.87106 18.4688 2.52569 18.6113 2.69797 18.7447C3.55314 19.4071 4.2676 21.1182 4.24712 22.7695C4.24712 22.7695 8.64643 19.8612 11.8335 14.8116C11.8335 14.8116 11.0496 12.502 9.48811 12.0785C9.28275 12.0228 8.64456 11.9645 8.64456 11.9645L8.54633 11.9981C8.54633 11.9981 2.42534 17.9508 1.87106 18.4688Z" fill="#C4CACE"/>
<g opacity="0.14">
<path fill-rule="evenodd" clip-rule="evenodd" d="M12.6487 1.19981C12.3199 1.16702 11.987 1.14816 11.6506 1.14384C11.6565 1.65884 11.6837 2.22367 11.713 2.83083C11.9394 7.5294 12.2878 14.763 3.84639 21.0584C4.26229 21.4337 4.70592 21.7789 5.17384 22.0905C6.63596 20.9554 9.54673 18.4347 11.8335 14.8117C11.8335 14.8117 11.8323 14.8083 11.8302 14.8024C12.273 14.1023 12.565 13.4781 12.6324 12.9908C12.717 12.3791 12.7044 8.31069 12.6487 1.19981Z" fill="#1E394F"/>
<path d="M1.04293 23.6809C1.61643 24.0582 2.36304 23.9746 3.26172 23.4319C3.54459 23.2612 3.87703 23.0304 4.24704 22.749C4.24702 22.7519 4.24704 22.7548 4.24706 22.7577C4.24709 22.7617 4.24711 22.7656 4.24704 22.7695C4.24704 22.7695 4.59815 22.5374 5.17384 22.0905C4.70592 21.7789 4.26229 21.4337 3.84639 21.0584C2.87503 21.7828 1.78727 22.4948 0.56955 23.189C0.704582 23.2482 0.776574 23.3552 0.84721 23.4601C0.903109 23.5432 0.958158 23.625 1.04293 23.6809Z" fill="#1E394F"/>
</g>
</g>
<defs>
<clipPath id="clip0">
<rect width="24" height="24" fill="white"/>
</clipPath>
</defs>
</svg>
