<svg width="24" height="24" viewBox="0 0 24 24" fill="none" xmlns="http://www.w3.org/2000/svg">
<g clip-path="url(#clip0)">
<path d="M22.8571 12.5715C22.8571 6.2596 17.7405 1.14285 11.4287 1.14285C5.11665 1.14285 -6.92822e-09 6.2596 -6.92822e-09 12.5715C-6.92822e-09 18.8832 5.11665 24 11.4287 24C17.7405 24.0001 22.8571 18.8832 22.8571 12.5715Z" fill="#F8D3A0"/>
<path d="M11.6064 2.8844C13.7913 -0.202027 18.054 -0.925394 21.1276 1.26888C24.2011 3.46288 24.9216 7.74357 22.7364 10.8299C20.5516 13.9163 16.2886 14.6397 13.2151 12.4455C10.1417 10.2515 9.42137 5.97077 11.6064 2.8844Z" fill="#EA7053"/>
<path d="M19.7039 3.2796C17.3764 1.61805 14.7896 0.979611 12.9792 1.44446C13.3232 1.17546 13.6893 0.943432 14.0712 0.748322C15.8791 0.705008 18.0513 1.40556 20.0305 2.81832C22.0095 4.2312 23.3822 6.06136 23.9355 7.79017C23.8776 8.21651 23.7795 8.6398 23.6398 9.05442C23.4819 7.18468 22.0316 4.9412 19.7039 3.2796Z" fill="#2B1F15"/>
<path d="M22.7382 10.8275C22.6829 10.9057 22.6253 10.9814 22.5675 11.0565L11.4489 3.1192C11.4995 3.04117 11.5504 2.96327 11.6045 2.88683C11.66 2.80858 11.7175 2.73288 11.7754 2.65781L22.8941 10.5951C22.8434 10.673 22.7924 10.751 22.7382 10.8275Z" fill="#2B1F15"/>
<path d="M14.6387 10.4346C16.9664 12.0961 19.5532 12.7345 21.3633 12.2699C21.0193 12.5388 20.6535 12.7709 20.2715 12.9659C18.4635 13.0093 16.2914 12.3087 14.3123 10.8959C12.3331 9.48304 10.9604 7.65288 10.4074 5.92418C10.4653 5.49773 10.5632 5.0745 10.703 4.65982C10.861 6.52961 12.3115 8.77326 14.6387 10.4346Z" fill="#2B1F15"/>
<path opacity="0.46" d="M10.6055 4.97393C10.6063 4.9716 10.607 4.96928 10.6077 4.9669C10.6369 4.86454 10.6683 4.76268 10.7026 4.66122C10.7027 4.66082 10.7028 4.66031 10.703 4.65986V4.66003C10.8826 4.12752 11.1306 3.60997 11.4489 3.11925C11.4995 3.04123 11.5504 2.96332 11.6045 2.88688C11.66 2.80864 11.7176 2.73294 11.7754 2.65786L11.7755 2.65792C12.2004 2.10662 12.6939 1.6377 13.2355 1.25399C13.238 1.25218 13.2405 1.25031 13.243 1.24855C13.3296 1.1874 13.4173 1.12869 13.5062 1.07196C13.5083 1.0706 13.5104 1.06913 13.5127 1.06777C13.6023 1.01069 13.6932 0.955943 13.7851 0.903344C13.7864 0.902552 13.7877 0.901759 13.789 0.901023C13.8344 0.875091 13.8808 0.851368 13.9265 0.826569C13.546 1.1429 13.1943 1.50498 12.8803 1.91241L12.8802 1.91236C12.8223 1.98743 12.7648 2.06308 12.7092 2.14138C12.6552 2.21782 12.6042 2.29572 12.5536 2.37374C12.2353 2.86446 11.9873 3.38208 11.8078 3.91452V3.91435C11.8076 3.91481 11.8074 3.91532 11.8073 3.91571C11.7731 4.01712 11.7417 4.11903 11.7124 4.2214C11.7118 4.22378 11.7111 4.22604 11.7104 4.22842C10.938 6.94422 11.897 9.97034 14.3199 11.6999C16.4632 13.2301 19.1842 13.3398 21.3762 12.2204H21.3763C21.3769 12.2202 21.3773 12.2198 21.3778 12.2197C21.422 12.1971 21.4653 12.1723 21.509 12.1487C21.4603 12.189 21.413 12.2313 21.3634 12.27C21.3632 12.2702 21.3629 12.2704 21.3628 12.2706C21.2791 12.336 21.194 12.399 21.1078 12.4601C21.105 12.462 21.1023 12.4641 21.0996 12.4661C21.0131 12.527 20.9253 12.5858 20.8366 12.6424C20.8345 12.6438 20.8323 12.6453 20.8301 12.6467C20.7401 12.7039 20.6492 12.7588 20.557 12.8116C20.556 12.8121 20.5551 12.8127 20.5542 12.8132C20.4615 12.8662 20.3677 12.9168 20.273 12.9652C20.2725 12.9654 20.2721 12.9658 20.2716 12.966H20.2715C18.0794 14.0854 15.3584 13.9756 13.2152 12.4455C10.7922 10.7158 9.83319 7.68967 10.6055 4.97393Z" fill="#921D0F"/>
<path d="M13.3825 22.365C13.6879 21.8961 13.9241 21.442 14.096 21.0025H19.1435C19.7336 20.4623 20.2669 19.8611 20.7331 19.2086H14.4233C14.4023 18.7948 14.3087 18.3989 14.1396 18.0226C13.4498 16.4874 11.5909 15.4823 8.61481 15.0356C7.68393 14.8958 6.73214 14.825 5.7859 14.825C4.39437 14.825 2.45055 14.9853 0.420105 15.6506C0.592478 16.2682 0.815649 16.8645 1.08445 17.4352C2.85859 16.8624 4.56383 16.7245 5.7859 16.7245C6.63813 16.7245 7.49505 16.7882 8.33286 16.914C10.5639 17.2488 12.0107 17.919 12.407 18.801C12.4638 18.9273 12.4993 19.0635 12.5158 19.2086H2.12397C2.59023 19.861 3.12348 20.4622 3.71352 21.0025H11.9907C11.929 21.109 11.8631 21.2173 11.7908 21.3284C11.1195 22.3593 10.2106 23.1583 9.16132 23.7746C9.89423 23.9221 10.6522 23.9999 11.4286 23.9999C11.6301 23.9999 11.8303 23.9946 12.0292 23.9843C12.5322 23.5059 12.9886 22.9698 13.3825 22.365Z" fill="white"/>
<path opacity="0.31" d="M16.0092 18.252C19.0754 18.252 21.5612 17.677 21.5612 16.9676C21.5612 16.2582 19.0754 15.6832 16.0092 15.6832C12.9429 15.6832 10.4572 16.2582 10.4572 16.9676C10.4572 17.677 12.9429 18.252 16.0092 18.252Z" fill="#BF7A72"/>
</g>
<defs>
<clipPath id="clip0">
<rect width="24" height="24" fill="white"/>
</clipPath>
</defs>
</svg>
