<svg width="68" height="14" viewBox="0 0 68 14" fill="none" xmlns="http://www.w3.org/2000/svg">
<path d="M8.15039 9.64258C8.15039 9.14453 7.97461 8.76367 7.62305 8.5C7.27148 8.23047 6.63867 7.94922 5.72461 7.65625C4.81055 7.35742 4.08691 7.06445 3.55371 6.77734C2.10059 5.99219 1.37402 4.93457 1.37402 3.60449C1.37402 2.91309 1.56738 2.29785 1.9541 1.75879C2.34668 1.21387 2.90625 0.789063 3.63281 0.484375C4.36523 0.179687 5.18555 0.0273438 6.09375 0.0273438C7.00781 0.0273438 7.82227 0.194336 8.53711 0.52832C9.25195 0.856445 9.80566 1.32227 10.1982 1.92578C10.5967 2.5293 10.7959 3.21484 10.7959 3.98242H8.15918C8.15918 3.39648 7.97461 2.94238 7.60547 2.62012C7.23633 2.29199 6.71777 2.12793 6.0498 2.12793C5.40527 2.12793 4.9043 2.26563 4.54688 2.54102C4.18945 2.81055 4.01074 3.16797 4.01074 3.61328C4.01074 4.0293 4.21875 4.37793 4.63477 4.65918C5.05664 4.94043 5.6748 5.2041 6.48926 5.4502C7.98926 5.90137 9.08203 6.46094 9.76758 7.12891C10.4531 7.79688 10.7959 8.62891 10.7959 9.625C10.7959 10.7324 10.377 11.6025 9.53906 12.2354C8.70117 12.8623 7.57324 13.1758 6.15527 13.1758C5.1709 13.1758 4.27441 12.9971 3.46582 12.6396C2.65723 12.2764 2.03906 11.7812 1.61133 11.1543C1.18945 10.5273 0.978516 9.80078 0.978516 8.97461H3.62402C3.62402 10.3867 4.46777 11.0928 6.15527 11.0928C6.78223 11.0928 7.27148 10.9668 7.62305 10.7148C7.97461 10.457 8.15039 10.0996 8.15039 9.64258ZM15.2256 8.49121V13H12.5889V0.203125H17.5811C18.542 0.203125 19.3857 0.378906 20.1123 0.730469C20.8447 1.08203 21.4072 1.58301 21.7998 2.2334C22.1924 2.87793 22.3887 3.61328 22.3887 4.43945C22.3887 5.69336 21.958 6.68359 21.0967 7.41016C20.2412 8.13086 19.0547 8.49121 17.5371 8.49121H15.2256ZM15.2256 6.35547H17.5811C18.2783 6.35547 18.8086 6.19141 19.1719 5.86328C19.541 5.53516 19.7256 5.06641 19.7256 4.45703C19.7256 3.83008 19.541 3.32324 19.1719 2.93652C18.8027 2.5498 18.293 2.35059 17.6426 2.33887H15.2256V6.35547ZM34.7197 6.8916C34.7197 8.15137 34.4971 9.25586 34.0518 10.2051C33.6064 11.1543 32.9678 11.8867 32.1357 12.4023C31.3096 12.918 30.3604 13.1758 29.2881 13.1758C28.2275 13.1758 27.2812 12.9209 26.4492 12.4111C25.6172 11.9014 24.9727 11.1748 24.5156 10.2314C24.0586 9.28223 23.8271 8.19238 23.8213 6.96191V6.3291C23.8213 5.06934 24.0469 3.96191 24.498 3.00684C24.9551 2.0459 25.5967 1.31055 26.4229 0.800781C27.2549 0.285156 28.2041 0.0273438 29.2705 0.0273438C30.3369 0.0273438 31.2832 0.285156 32.1094 0.800781C32.9414 1.31055 33.583 2.0459 34.0342 3.00684C34.4912 3.96191 34.7197 5.06641 34.7197 6.32031V6.8916ZM32.0479 6.31152C32.0479 4.96973 31.8076 3.9502 31.3271 3.25293C30.8467 2.55566 30.1611 2.20703 29.2705 2.20703C28.3857 2.20703 27.7031 2.55273 27.2227 3.24414C26.7422 3.92969 26.499 4.9375 26.4932 6.26758V6.8916C26.4932 8.19824 26.7334 9.21191 27.2139 9.93262C27.6943 10.6533 28.3857 11.0137 29.2881 11.0137C30.1729 11.0137 30.8525 10.668 31.3271 9.97656C31.8018 9.2793 32.042 8.26562 32.0479 6.93555V6.31152ZM41.373 8.31543H39.2725V13H36.6357V0.203125H41.3906C42.9023 0.203125 44.0684 0.540039 44.8887 1.21387C45.709 1.8877 46.1191 2.83984 46.1191 4.07031C46.1191 4.94336 45.9287 5.67285 45.5479 6.25879C45.1729 6.83887 44.6016 7.30176 43.834 7.64746L46.6025 12.877V13H43.7725L41.373 8.31543ZM39.2725 6.17969H41.3994C42.0615 6.17969 42.5742 6.0127 42.9375 5.67871C43.3008 5.33887 43.4824 4.87305 43.4824 4.28125C43.4824 3.67773 43.3096 3.20312 42.9639 2.85742C42.624 2.51172 42.0996 2.33887 41.3906 2.33887H39.2725V6.17969ZM57.3252 2.33887H53.4053V13H50.7686V2.33887H46.9014V0.203125H57.3252V2.33887ZM65.332 9.64258C65.332 9.14453 65.1562 8.76367 64.8047 8.5C64.4531 8.23047 63.8203 7.94922 62.9062 7.65625C61.9922 7.35742 61.2686 7.06445 60.7354 6.77734C59.2822 5.99219 58.5557 4.93457 58.5557 3.60449C58.5557 2.91309 58.749 2.29785 59.1357 1.75879C59.5283 1.21387 60.0879 0.789063 60.8145 0.484375C61.5469 0.179687 62.3672 0.0273438 63.2754 0.0273438C64.1895 0.0273438 65.0039 0.194336 65.7188 0.52832C66.4336 0.856445 66.9873 1.32227 67.3799 1.92578C67.7783 2.5293 67.9775 3.21484 67.9775 3.98242H65.3408C65.3408 3.39648 65.1562 2.94238 64.7871 2.62012C64.418 2.29199 63.8994 2.12793 63.2314 2.12793C62.5869 2.12793 62.0859 2.26563 61.7285 2.54102C61.3711 2.81055 61.1924 3.16797 61.1924 3.61328C61.1924 4.0293 61.4004 4.37793 61.8164 4.65918C62.2383 4.94043 62.8564 5.2041 63.6709 5.4502C65.1709 5.90137 66.2637 6.46094 66.9492 7.12891C67.6348 7.79688 67.9775 8.62891 67.9775 9.625C67.9775 10.7324 67.5586 11.6025 66.7207 12.2354C65.8828 12.8623 64.7549 13.1758 63.3369 13.1758C62.3525 13.1758 61.4561 12.9971 60.6475 12.6396C59.8389 12.2764 59.2207 11.7812 58.793 11.1543C58.3711 10.5273 58.1602 9.80078 58.1602 8.97461H60.8057C60.8057 10.3867 61.6494 11.0928 63.3369 11.0928C63.9639 11.0928 64.4531 10.9668 64.8047 10.7148C65.1562 10.457 65.332 10.0996 65.332 9.64258Z" fill="white"/>
</svg>
